<svg width="64" height="64" viewBox="0 0 64 64" xmlns="http://www.w3.org/2000/svg">
  <!-- Cercle de fond avec dégradé vert-violet -->
  <defs>
    <linearGradient id="bgGradient" x1="0%" y1="0%" x2="100%" y2="100%">
      <stop offset="0%" style="stop-color:#16a34a;stop-opacity:1" />
      <stop offset="100%" style="stop-color:#9333ea;stop-opacity:1" />
    </linearGradient>
  </defs>

  <!-- Cercle de fond -->
  <circle cx="32" cy="32" r="32" fill="url(#bgGradient)"/>

  <!-- Icône de chien (patte) en blanc -->
  <g transform="translate(16, 16) scale(1.6)">
    <path d="M10 3.5a1.5 1.5 0 013 0V4a1 1 0 001 1h3a1 1 0 011 1v3a1 1 0 01-1 1h-.5a1.5 1.5 0 000 3h.5a1 1 0 011 1v3a1 1 0 01-1 1h-3a1 1 0 01-1-1v-.5a1.5 1.5 0 00-3 0v.5a1 1 0 01-1 1H6a1 1 0 01-1-1v-3a1 1 0 00-1-1h-.5a1.5 1.5 0 010-3H4a1 1 0 001-1V6a1 1 0 011-1h3a1 1 0 001-1v-.5z"
          fill="white" opacity="0.95"/>
  </g>
</svg>
